<svg width="64" height="64" viewBox="0 0 64 64" fill="none" xmlns="http://www.w3.org/2000/svg">
<rect width="64" height="64" rx="32" fill="#E9EFFF"/>
<path d="M15.3333 47C15.3332 44.4339 16.0735 41.9222 17.4656 39.7665C18.8576 37.6107 20.8421 35.9024 23.181 34.8467C25.5199 33.7909 28.1137 33.4325 30.6513 33.8145C33.1888 34.1964 35.5622 35.3025 37.4867 37M43.6667 38.6667V48.6667M48.6667 43.6667H38.6667M37 25.3333C37 29.9357 33.269 33.6667 28.6667 33.6667C24.0643 33.6667 20.3333 29.9357 20.3333 25.3333C20.3333 20.731 24.0643 17 28.6667 17C33.269 17 37 20.731 37 25.3333Z" stroke="#1E3A8A" stroke-width="3" stroke-linecap="round" stroke-linejoin="round"/>
</svg>
